<svg id="Capa_1" enable-background="new 0 0 512.002 512.002" height="512" viewBox="0 0 512.002 512.002" width="512" xmlns="http://www.w3.org/2000/svg"><g><path d="m97.501 127.5c0 4.142 3.358 7.5 7.5 7.5s7.5-3.358 7.5-7.5v-10.333c14.338-7.444 58-33.493 58-74.667 0-23.435-19.065-42.5-42.5-42.5-8.2 0-16.176 2.373-23 6.77-6.824-4.397-14.8-6.77-23-6.77-23.435 0-42.5 19.065-42.5 42.5 0 41.175 43.662 67.224 58 74.667zm-43-85c0-15.164 12.336-27.5 27.5-27.5 6.642 0 13.059 2.408 18.068 6.781 2.825 2.467 7.039 2.467 9.864 0 5.009-4.373 11.426-6.781 18.068-6.781 15.164 0 27.5 12.336 27.5 27.5 0 33.056-39.121 55.74-50.507 61.64-11.404-5.886-50.493-28.487-50.493-61.64z"/><path d="m142.501 157.5c0 28.949 23.551 52.5 52.5 52.5s52.5-23.551 52.5-52.5-23.551-52.5-52.5-52.5-52.5 23.551-52.5 52.5zm52.5-37.5c20.678 0 37.5 16.822 37.5 37.5s-16.822 37.5-37.5 37.5-37.5-16.822-37.5-37.5 16.822-37.5 37.5-37.5z"/><path d="m257.373 497.385-24.872-8.291v-129.902c9.27-9.472 15-22.423 15-36.692v-70c0-15.164-12.336-27.5-27.5-27.5h-50c-12.563 0-23.178 8.472-26.452 20h-31.048v-87.5c0-4.142-3.358-7.5-7.5-7.5s-7.5 3.358-7.5 7.5v57.5h-7.5c-12.407 0-22.5 10.093-22.5 22.5s10.093 22.5 22.5 22.5h7.5v62.5c0 4.142 3.358 7.5 7.5 7.5s7.5-3.358 7.5-7.5v-62.5h30v62.5c0 14.269 5.73 27.22 15 36.692v53.308c0 2.204-.917 3.79-1.687 4.733l-41.625 51.026c-1.092 1.338-1.688 3.013-1.688 4.741v31.5c0 4.142 3.358 7.5 7.5 7.5s7.5-3.358 7.5-7.5v-28.829l39.936-48.956c3.266-4.002 5.064-9.051 5.064-14.215v-42.576c6.824 3.25 14.452 5.076 22.5 5.076s15.676-1.825 22.5-5.076v124.576c0 3.228 2.066 6.094 5.128 7.115l30 10c.787.262 1.586.387 2.373.387 3.14 0 6.066-1.988 7.114-5.13 1.31-3.93-.814-8.177-4.743-9.487zm-167.372-252.385c-4.136 0-7.5-3.364-7.5-7.5s3.364-7.5 7.5-7.5h7.5v15zm80-5h50c6.893 0 12.5 5.607 12.5 12.5v62.5h-75v-62.5c0-6.893 5.607-12.5 12.5-12.5zm-11.745 90h73.491c-3.484 17.096-18.635 30-36.745 30s-33.262-12.904-36.746-30z"/><path d="m306.719 193.372c9.585 10.223 23.196 16.628 38.282 16.628s28.697-6.405 38.282-16.628c2.59 9.567 11.342 16.628 21.718 16.628 12.407 0 22.5-10.093 22.5-22.5 0-18.271-13.137-33.522-30.459-36.828-3.358-25.732-25.407-45.672-52.041-45.672s-48.683 19.94-52.041 45.672c-17.322 3.306-30.459 18.557-30.459 36.828 0 12.407 10.093 22.5 22.5 22.5 10.375 0 19.128-7.061 21.718-16.628zm105.782-5.872c0 4.136-3.364 7.5-7.5 7.5s-7.5-3.364-7.5-7.5v-21.215c8.73 3.095 15 11.437 15 21.215zm-30.849-37.92c-20.154-2-38.58-11.212-52.297-26.147 4.766-2.198 10.063-3.433 15.646-3.433 17.96 0 33.005 12.694 36.651 29.58zm-64.452-17.219c16.692 18.803 39.576 30.244 64.607 32.299-3.352 17.264-18.577 30.34-36.806 30.34-20.678 0-37.5-16.822-37.5-37.5 0-9.663 3.675-18.483 9.699-25.139zm-39.699 55.139c0-9.778 6.27-18.12 15-21.215v21.215c0 4.136-3.364 7.5-7.5 7.5s-7.5-3.364-7.5-7.5z"/><path d="m472.501 177.5c0-4.142-3.358-7.5-7.5-7.5s-7.5 3.358-7.5 7.5c0 35.073-26.891 63.972-61.136 67.191-3.374-11.371-13.913-19.691-26.364-19.691h-50c-15.164 0-27.5 12.336-27.5 27.5v52.259c-9.693 11.989-15 26.936-15 42.406v20.335c0 4.142 3.358 7.5 7.5 7.5h22.5v114.094l-24.872 8.291c-3.93 1.31-6.053 5.558-4.744 9.487 1.048 3.143 3.974 5.13 7.114 5.13.786 0 1.586-.125 2.373-.387l30-10c3.063-1.021 5.128-3.887 5.128-7.115v-119.5h45v37.5c0 5.165 1.798 10.213 5.063 14.215l39.937 48.956v28.829c0 4.142 3.358 7.5 7.5 7.5s7.5-3.358 7.5-7.5v-31.5c0-1.728-.596-3.402-1.688-4.741l-41.625-51.026c-.769-.943-1.686-2.529-1.686-4.733v-37.5h22.5c4.142 0 7.5-3.358 7.5-7.5v-20.335c0-15.472-5.307-30.417-15-42.406v-45.115c41.987-3.804 75-39.183 75-82.144zm-75 182.5h-105v-12.835c0-12.785 4.661-25.109 13.125-34.704 1.208-1.37 1.875-3.134 1.875-4.961v-55c0-6.893 5.607-12.5 12.5-12.5h50c6.893 0 12.5 5.607 12.5 12.5v55c0 1.827.667 3.591 1.875 4.961 8.463 9.594 13.125 21.918 13.125 34.704z"/></g></svg>