<?xml version="1.0"?>
<svg xmlns="http://www.w3.org/2000/svg" width="512" height="512" viewBox="0 0 512 512"><g><path d="M503.75,494.03,485,420.4c-.02-.08-.04-.15-.06-.23a87.824,87.824,0,0,0-66.48-61.94L320,337.51V315.86A112.136,112.136,0,0,0,366.85,240H372a28.031,28.031,0,0,0,28-28V188a28.031,28.031,0,0,0-28-28h-4V141.12c28.43-14.02,37.96-36.18,40.88-52.73a84.2,84.2,0,0,0-1.19-34.59,8.006,8.006,0,0,0-14.35-2.24c-7.03,10.55-42.27-8.88-55.53-16.19-1.95-1.08-3.76-2.08-5.41-2.97C308.39,17.33,287.19,8,256,8A112.123,112.123,0,0,0,144,120v40h-4a28.031,28.031,0,0,0-28,28v24a28.031,28.031,0,0,0,28,28h5.15A112.136,112.136,0,0,0,192,315.86v21.65L93.54,358.23a87.824,87.824,0,0,0-66.48,61.94c-.02.08-.04.15-.06.23L8.25,494.03A7.99,7.99,0,0,0,16,504H496a7.99,7.99,0,0,0,7.75-9.97ZM144,224h-4a12.01,12.01,0,0,1-12-12V188a12.01,12.01,0,0,1,12-12h4Zm228-48a12.01,12.01,0,0,1,12,12v24a12.01,12.01,0,0,1-12,12h-4V176ZM160,120a96.115,96.115,0,0,1,96-96c27.45,0,46.42,8.45,68.11,22.09.16.1.31.19.47.28,1.67.89,3.51,1.91,5.5,3.01,18.03,9.94,45.6,25.14,63.96,20.17,1.02,15.87-2.56,44.26-37.19,59.1A8,8,0,0,0,352,136v12.33a80.64,80.64,0,0,1-42.3-31.55,8,8,0,0,0-12.22-1.24A128.23,128.23,0,0,1,160,142.71Zm0,104V159.81a144.271,144.271,0,0,0,141.98-26.69A96.725,96.725,0,0,0,352,164.95V224a96,96,0,0,1-192,0ZM304,325.18V344c0,14.76-6.46,24.76-15.7,31.07S267.07,384,256,384c-35.43,0-48-21.55-48-40V325.18a111.88,111.88,0,0,0,96,0ZM416,488V456a8,8,0,0,0-16,0v32H112V456a8,8,0,0,0-16,0v32H26.29l16.18-63.54a71.868,71.868,0,0,1,54.37-50.57l95.92-20.19a50.6,50.6,0,0,0,18.63,32.14C222.77,394.97,238.61,400,256,400s33.23-5.03,44.61-14.16a50.6,50.6,0,0,0,18.63-32.14l95.92,20.19a71.868,71.868,0,0,1,54.37,50.57L485.71,488Z"/><path d="M280,272a8,8,0,0,0-8-8H240a8,8,0,0,0,0,16h32A8,8,0,0,0,280,272Z"/><circle cx="208" cy="192" r="16"/><circle cx="304" cy="192" r="16"/></g></svg>
